<svg xmlns="http://www.w3.org/2000/svg" width="18" height="18" fill="currentColor" ><path d="M17.91 11.626l-1.169-1.84c-.045-.09-.18-.18-.36-.18-.18-.045-.36 0-.405.09l-1.798 1.257a.7.7 0 0 0-.27.359c-.045.135 0 .269.09.404a.7.7 0 0 0 .36.269c.135.045.27 0 .405-.09l.629-.449-.09.269c-.674 2.963-3.327 5.027-6.339 5.027-2.922 0-5.485-1.93-6.249-4.713-.045-.179-.135-.269-.27-.314-.09-.045-.18-.09-.315-.09-.045 0-.135 0-.135.045h-.045a.6.6 0 0 0-.36.314c-.09.135-.09.269-.045.404A7.66 7.66 0 0 0 8.919 18a7.74 7.74 0 0 0 7.508-6.06l.09-.225.45.584a.7.7 0 0 0 .36.269c.135.045.27 0 .405-.09a.7.7 0 0 0 .27-.359c0-.224 0-.314-.09-.494zM2.22 8.214l1.753-1.257a.7.7 0 0 0 .27-.359c.045-.135 0-.269-.09-.404a.7.7 0 0 0-.36-.269c-.135-.045-.27 0-.405.09l-.629.449.09-.314c.584-2.873 3.192-4.983 6.249-4.983 2.922 0 5.485 1.93 6.249 4.713.045.18.135.269.27.314.135.09.315.09.45.045a.6.6 0 0 0 .36-.314c.09-.135.09-.269.045-.404C15.572 2.289 12.515 0 9.099 0 5.502 0 2.355 2.559 1.591 6.06l-.09.224-.45-.584a.7.7 0 0 0-.36-.269h-.09c-.135 0-.27.045-.315.135a.7.7 0 0 0-.27.359c-.045.135 0 .269.09.404l1.259 1.796c.045.09.18.18.36.18.18.045.36 0 .495-.09zm6.564 6.375a.55.55 0 0 0 .405.18c.135 0 .315-.09.45-.18.135-.135.18-.224.18-.404v-.988l.225-.045c.584-.135 1.124-.404 1.574-.853.405-.404.629-.943.629-1.526.045-.584-.135-1.077-.495-1.436s-.899-.628-1.708-.808l-.225-.045V5.611l.405.09c.495.135.899.404 1.079.539.135.135.405.09.584-.09.09-.09.18-.224.18-.359 0-.224-.09-.359-.315-.539-.494-.404-1.034-.628-1.708-.763l-.225-.045v-.628c0-.18-.045-.314-.18-.404a.55.55 0 0 0-.405-.18c-.135 0-.315.045-.45.18-.09.135-.135.269-.135.404V4.4l-.225.045c-.719.09-1.304.359-1.753.808a2.2 2.2 0 0 0-.674 1.616c0 1.302.764 2.065 2.383 2.379l.225.045v2.963l-.315-.045c-.315-.045-.584-.135-.809-.269-.225-.09-.405-.225-.629-.404-.045-.045-.135-.09-.18-.135-.09-.09-.18-.135-.315-.135-.18 0-.27.045-.36.135-.135.135-.18.224-.18.359 0 .224.09.359.315.539.36.314.719.539 1.079.673a4.97 4.97 0 0 0 1.169.269h.225v.898c0 .18.045.314.18.449zm1.034-5.072l.405.18c.27.135.45.269.629.449.225.269.225.539.225.763s-.09.494-.27.718c-.135.135-.315.269-.54.404l-.405.18V9.516h-.045zM8.29 8.08c-.27-.09-.584-.269-.809-.449-.225-.224-.315-.494-.315-.853a1.08 1.08 0 0 1 .315-.808c.18-.18.45-.314.854-.404l.36-.045v2.693L8.29 8.08z"/></svg>